<svg width="28" height="16" viewBox="0 0 28 16" fill="none" xmlns="http://www.w3.org/2000/svg">
<path d="M17 2.66667C17 2.43092 17.1054 2.20483 17.2929 2.03813C17.4804 1.87143 17.7348 1.77778 18 1.77778H26C26.2652 1.77778 26.5196 1.87143 26.7071 2.03813C26.8946 2.20483 27 2.43092 27 2.66667C27 2.90241 26.8946 3.12851 26.7071 3.29521C26.5196 3.4619 26.2652 3.55556 26 3.55556H18C17.7348 3.55556 17.4804 3.4619 17.2929 3.29521C17.1054 3.12851 17 2.90241 17 2.66667ZM14 11.3333C14 12.571 13.4469 13.758 12.4623 14.6332C11.4777 15.5083 10.1424 16 8.75 16H1C0.734784 16 0.48043 15.9064 0.292893 15.7397C0.105357 15.573 0 15.3469 0 15.1111V0.888889C0 0.653141 0.105357 0.427049 0.292893 0.26035C0.48043 0.0936507 0.734784 0 1 0H8.25C9.20643 0.000904786 10.1403 0.258434 10.9293 0.738887C11.7184 1.21934 12.3259 1.90033 12.6723 2.69275C13.0188 3.48517 13.0881 4.35211 12.8711 5.1801C12.6541 6.00809 12.161 6.75857 11.4563 7.33333C12.2324 7.74837 12.8746 8.33485 13.3203 9.03576C13.7661 9.73668 14.0002 10.5282 14 11.3333ZM2 6.66667H8.25C8.97935 6.66667 9.67882 6.40913 10.1945 5.95071C10.7103 5.49228 11 4.87053 11 4.22222C11 3.57392 10.7103 2.95216 10.1945 2.49374C9.67882 2.03532 8.97935 1.77778 8.25 1.77778H2V6.66667ZM12 11.3333C12 10.954 11.9159 10.5783 11.7526 10.2278C11.5893 9.87731 11.3499 9.55884 11.0481 9.29058C10.7463 9.02232 10.388 8.80953 9.99372 8.66435C9.59941 8.51917 9.1768 8.44444 8.75 8.44444H2V14.2222H8.75C9.1768 14.2222 9.59941 14.1475 9.99372 14.0023C10.388 13.8571 10.7463 13.6443 11.0481 13.3761C11.3499 13.1078 11.5893 12.7894 11.7526 12.4389C11.9159 12.0884 12 11.7127 12 11.3333ZM28 10.6667C28 10.9024 27.8946 11.1285 27.7071 11.2952C27.5196 11.4619 27.2652 11.5556 27 11.5556H18.125C18.3132 12.2042 18.7038 12.7923 19.2516 13.2522C19.7995 13.7122 20.4824 14.0252 21.2216 14.1552C21.9608 14.2853 22.7263 14.2271 23.43 13.9873C24.1336 13.7475 24.7467 13.336 25.1987 12.8C25.2776 12.7066 25.3764 12.628 25.4895 12.5685C25.6026 12.5091 25.7277 12.47 25.8578 12.4535C25.9878 12.4371 26.1203 12.4436 26.2475 12.4726C26.3748 12.5016 26.4943 12.5527 26.5994 12.6228C26.7044 12.6929 26.7929 12.7807 26.8598 12.8812C26.9267 12.9817 26.9706 13.093 26.9891 13.2086C27.0077 13.3242 27.0004 13.4419 26.9677 13.555C26.935 13.6681 26.8776 13.7744 26.7987 13.8678C25.9436 14.8806 24.7109 15.5899 23.3212 15.8687C21.9316 16.1476 20.4756 15.9778 19.2139 15.3898C17.9522 14.8017 16.967 13.8338 16.4346 12.6592C15.9023 11.4846 15.8575 10.18 16.3083 8.9787C16.7591 7.77742 17.676 6.75793 18.8951 6.10261C20.1141 5.4473 21.5557 5.19893 22.9619 5.40195C24.3681 5.60497 25.6472 6.24612 26.5702 7.2107C27.4933 8.17527 28.0001 9.40033 28 10.6667ZM25.875 9.77778C25.6547 9.01296 25.1543 8.33508 24.4527 7.85099C23.7511 7.3669 22.8882 7.10414 22 7.10414C21.1118 7.10414 20.2489 7.3669 19.5473 7.85099C18.8457 8.33508 18.3453 9.01296 18.125 9.77778H25.875Z" fill="#FF0621"/>
</svg>
