<svg width="26" height="24" viewBox="0 0 26 24" fill="none" xmlns="http://www.w3.org/2000/svg">
<path d="M13 6.46154C11.8133 6.46154 10.6533 6.78636 9.66658 7.39494C8.67988 8.00351 7.91085 8.8685 7.45672 9.88052C7.0026 10.8925 6.88378 12.0061 7.11529 13.0805C7.3468 14.1549 7.91824 15.1417 8.75736 15.9163C9.59647 16.6909 10.6656 17.2183 11.8295 17.432C12.9933 17.6457 14.1997 17.5361 15.2961 17.1169C16.3925 16.6977 17.3295 15.9878 17.9888 15.077C18.6481 14.1662 19 13.0954 19 12C18.9983 10.5316 18.3657 9.12374 17.2408 8.0854C16.116 7.04707 14.5908 6.46307 13 6.46154ZM13 15.6923C12.2089 15.6923 11.4355 15.4758 10.7777 15.07C10.1199 14.6643 9.60723 14.0877 9.30448 13.413C9.00173 12.7383 8.92252 11.9959 9.07686 11.2797C9.2312 10.5634 9.61216 9.90552 10.1716 9.38914C10.731 8.87277 11.4437 8.52111 12.2196 8.37864C12.9956 8.23617 13.7998 8.30929 14.5307 8.58875C15.2616 8.86821 15.8864 9.34147 16.3259 9.94866C16.7654 10.5559 17 11.2697 17 12C17 12.9793 16.5786 13.9184 15.8284 14.6109C15.0783 15.3033 14.0609 15.6923 13 15.6923ZM19 0H7C5.14409 0.00183257 3.36477 0.683188 2.05245 1.89456C0.740121 3.10594 0.00198528 4.74839 0 6.46154V17.5385C0.00198528 19.2516 0.740121 20.8941 2.05245 22.1054C3.36477 23.3168 5.14409 23.9982 7 24H19C20.8559 23.9982 22.6352 23.3168 23.9476 22.1054C25.2599 20.8941 25.998 19.2516 26 17.5385V6.46154C25.998 4.74839 25.2599 3.10594 23.9476 1.89456C22.6352 0.683188 20.8559 0.00183257 19 0ZM24 17.5385C24 18.7625 23.4732 19.9365 22.5355 20.802C21.5979 21.6676 20.3261 22.1538 19 22.1538H7C5.67392 22.1538 4.40215 21.6676 3.46447 20.802C2.52678 19.9365 2 18.7625 2 17.5385V6.46154C2 5.23746 2.52678 4.06352 3.46447 3.19797C4.40215 2.33242 5.67392 1.84615 7 1.84615H19C20.3261 1.84615 21.5979 2.33242 22.5355 3.19797C23.4732 4.06352 24 5.23746 24 6.46154V17.5385ZM21 6C21 6.27385 20.912 6.54155 20.7472 6.76925C20.5824 6.99695 20.3481 7.17442 20.074 7.27922C19.7999 7.38402 19.4983 7.41144 19.2074 7.35801C18.9164 7.30458 18.6491 7.17271 18.4393 6.97907C18.2296 6.78543 18.0867 6.53871 18.0288 6.27013C17.9709 6.00154 18.0007 5.72314 18.1142 5.47013C18.2277 5.21713 18.42 5.00088 18.6666 4.84873C18.9133 4.69659 19.2033 4.61538 19.5 4.61538C19.8978 4.61538 20.2794 4.76126 20.5607 5.02093C20.842 5.28059 21 5.63278 21 6Z" fill="#FF0621"/>
</svg>
