<svg width="27" height="22" viewBox="0 0 27 22" fill="none" xmlns="http://www.w3.org/2000/svg">
<path d="M26.9237 3.31643C26.848 3.14893 26.7199 3.00574 26.5554 2.90499C26.391 2.80424 26.1977 2.75044 25.9999 2.7504H22.196C21.6642 1.92104 20.9073 1.23193 19.9989 0.750056C19.0905 0.268184 18.0616 0.0099507 17.0121 0.000462345C16.2302 -0.00893812 15.4542 0.125096 14.7296 0.394679C14.0051 0.664262 13.3467 1.06395 12.7932 1.57022C12.2235 2.08265 11.7714 2.69431 11.4633 3.36924C11.1552 4.04417 10.9975 4.76874 10.9994 5.50035V6.19814C5.96672 4.9813 1.85033 1.22877 1.80658 1.18867C1.67242 1.0646 1.50237 0.978256 1.31646 0.939805C1.13056 0.901353 0.936535 0.912395 0.757245 0.97163C0.577956 1.03086 0.420865 1.13582 0.304473 1.27415C0.188081 1.41248 0.117235 1.57841 0.100276 1.7524C-0.438492 7.22823 1.29657 10.8925 2.85037 13.002C3.60799 14.0448 4.52965 14.9791 5.58546 15.7748C3.68164 17.7834 0.684045 18.8387 0.651544 18.8502C0.510432 18.8986 0.383088 18.9757 0.279027 19.0756C0.174966 19.1755 0.0968789 19.2956 0.0506005 19.4271C0.00432209 19.5585 -0.00895097 19.6978 0.0117727 19.8347C0.0324964 19.9715 0.086681 20.1022 0.170278 20.2171C0.264031 20.3455 0.639044 20.7958 1.55532 21.2163C2.68786 21.7365 4.18416 22 5.99922 22C14.8333 22 22.2148 15.7645 22.9685 7.74155L26.7074 4.31558C26.8472 4.18732 26.9424 4.02393 26.9809 3.84608C27.0194 3.66823 26.9995 3.48391 26.9237 3.31643ZM21.2985 6.68626C21.127 6.8438 21.0239 7.05313 21.0085 7.27521C20.4997 14.5041 13.9095 20.1667 5.99922 20.1667C4.67918 20.1667 3.74915 20.0063 3.09662 19.8138C4.53542 19.0977 6.54174 17.8659 7.83178 16.0922C7.9075 15.9879 7.95908 15.8705 7.98336 15.7472C8.00764 15.6239 8.00409 15.4974 7.97293 15.3754C7.94177 15.2534 7.88366 15.1386 7.80219 15.038C7.72073 14.9374 7.61763 14.8532 7.49927 14.7906C7.44052 14.7596 2.01034 11.7725 1.99909 3.7908C3.99915 5.28035 7.65553 7.59145 11.8332 8.23539C11.9763 8.25752 12.1231 8.2508 12.2631 8.21571C12.4032 8.18061 12.5332 8.11798 12.6442 8.03217C12.7552 7.94636 12.8445 7.83942 12.9058 7.71879C12.9672 7.59816 12.9991 7.46673 12.9995 7.33364V5.50035C12.9983 5.01137 13.1039 4.52713 13.31 4.07612C13.5161 3.62511 13.8185 3.21643 14.1995 2.87415C14.5647 2.53877 14.9996 2.2739 15.4783 2.0952C15.9571 1.91651 16.4702 1.82761 16.9871 1.83376C18.5696 1.85209 20.0484 2.73665 20.6672 4.03486C20.7452 4.19807 20.8734 4.33691 21.0362 4.43439C21.1989 4.53186 21.3891 4.58375 21.5835 4.5837H23.5836L21.2985 6.68626Z" fill="#FF0621"/>
</svg>
